<svg width="1000" height="1000" viewBox="0 0 1000 1000" fill="none" xmlns="http://www.w3.org/2000/svg">
<circle cx="500" cy="500" r="495" fill="white" stroke="#194464" stroke-width="10"/>
<circle cx="500.001" cy="500" r="356.667" fill="#194464"/>
<path d="M770 646.147V668.326C714.532 659.827 682.132 660.409 622.968 667.094C575.197 672.922 548.646 679.488 501.666 696.667C441.897 674.211 406.872 667.806 342.382 664.63C300.162 662.8 276.314 663.34 233.333 668.326V644.914C288.795 637.738 318.578 637.047 368.112 644.914C408.952 650.8 431.673 654.983 471.035 668.326C423.83 645.026 394.882 637.633 342.382 626.431C304.397 619.714 282.616 618.952 243.135 621.502L245.586 405.867L234.558 399.706V366.436H289.695L349.733 426.814L409.771 366.436H456.331V603.019L418.348 589.465V414.492L348.508 481.031L282.344 414.492V601.787C332.158 601.689 358.82 608.504 404.87 621.502C437.952 633.824 456.331 636.289 501.666 673.255C522.297 652.752 549.272 642.362 586.652 627.965L587.435 627.663L649.924 607.948C636.446 603.019 545.776 583.581 545.776 484.728C545.776 408.331 599.688 357.228 668.303 362.74C714.345 366.438 735.664 376.684 766.324 408.331L741.819 431.743C717.459 403.846 684.231 397.241 668.303 397.241C613.166 398.473 578.858 431.743 583.759 487.192C583.759 534.016 621.742 570.982 668.303 570.982C695.073 570.256 710.328 563.171 738.143 534.016L766.324 562.357C752.637 578.15 739.514 586.746 709.962 601.787L761.423 605.484V622.735C716.456 618.599 691.238 619.726 646.248 627.663C597.223 638.49 571.699 647.771 528.622 668.326C576.354 652.483 604.069 646.069 656.05 641.218C708.881 638.059 733.373 639.418 770 646.147Z" fill="white"/>
<path d="M506.518 637.667H499.24L487.708 601.889H517.436L506.518 637.667Z" fill="white"/>
<path d="M482.258 589.552H521.075L533.205 559.944V552.541L519.862 524.166V339.111H621.757L649.656 358.85V303.333H353.676V360.084L382.789 339.111H483.471V524.166L471.341 552.541V559.944L482.258 589.552Z" fill="white"/>
<path d="M770 646.147V668.326C714.532 659.827 682.132 660.409 622.968 667.094C575.197 672.922 548.646 679.488 501.666 696.667C441.897 674.211 406.872 667.806 342.382 664.63C300.162 662.8 276.314 663.34 233.333 668.326V644.914C288.795 637.738 318.578 637.047 368.112 644.914C408.952 650.8 431.673 654.983 471.035 668.326C423.83 645.026 394.882 637.633 342.382 626.431C304.397 619.714 282.616 618.952 243.135 621.502L245.586 405.867L234.558 399.706V366.436H289.695L349.733 426.814L409.771 366.436H456.331V603.019L418.348 589.465V414.492L348.508 481.031L282.344 414.492V601.787C332.158 601.689 358.82 608.504 404.87 621.502C437.952 633.824 456.331 636.289 501.666 673.255C522.297 652.752 549.272 642.362 586.652 627.965L587.435 627.663L649.924 607.948C636.446 603.019 545.776 583.581 545.776 484.728C545.776 408.331 599.688 357.228 668.303 362.74C714.345 366.438 735.664 376.684 766.324 408.331L741.819 431.743C717.459 403.846 684.231 397.241 668.303 397.241C613.166 398.473 578.858 431.743 583.759 487.192C583.759 534.016 621.742 570.982 668.303 570.982C695.073 570.256 710.328 563.171 738.143 534.016L766.324 562.357C752.637 578.15 739.514 586.746 709.962 601.787L761.423 605.484V622.735C716.456 618.599 691.238 619.726 646.248 627.663C597.223 638.49 571.699 647.771 528.622 668.326C576.354 652.483 604.069 646.069 656.05 641.218C708.881 638.059 733.373 639.418 770 646.147Z" stroke="black"/>
<path d="M506.518 637.667H499.24L487.708 601.889H517.436L506.518 637.667Z" stroke="black"/>
<path d="M482.258 589.552H521.075L533.205 559.944V552.541L519.862 524.166V339.111H621.757L649.656 358.85V303.333H353.676V360.084L382.789 339.111H483.471V524.166L471.341 552.541V559.944L482.258 589.552Z" stroke="black"/>
<path d="M63.022 493.068L61.5435 500.178L56.667 499.855L58.2813 476.843L87.904 471.596L95.7507 470.484L88.113 468.618L59.492 459.583L61.0968 436.707L65.9732 437.029L66.431 444.471L107.355 441.742L108.487 436.581L113.085 436.885L111.485 459.694L106.887 459.39L106.524 453.586L76.2998 454.441L63.9535 454.847L74.9335 457.954L108.795 469.104L108.173 477.97L74.0002 485.227L61.5906 487.533L73.8641 489.162L103.714 493.655L104.964 486.802L109.562 487.106L108.19 506.667L103.592 506.362L103.289 500.698L63.022 493.068Z" fill="#194464"/>
<path d="M73.2823 407.196L70.9909 412.09L66.2543 410.918L75.6804 374.957L87.8812 377.066L86.5199 382.26L79.0825 382.87L75.0111 395.653L92.6041 400.006L94.5035 391.936L89.2651 389.379L90.4541 384.843L107.438 389.045L106.249 393.582L100.069 393.243L97.7467 401.279L116.152 405.833L118.978 391.201L111.301 385.031L114.389 379.845L126.697 384.57L116.547 423.292L112.081 422.187L112.731 416.957L73.2823 407.196Z" fill="#194464"/>
<path d="M142.08 347.413C140.034 352.072 137.232 355.63 133.672 358.089C130.113 360.547 126.139 361.875 121.751 362.072C117.363 362.27 112.856 361.41 108.232 359.493C102.923 357.293 98.8347 354.443 95.968 350.944C93.1014 347.445 91.5207 343.495 91.2258 339.095C90.9063 334.636 91.8425 329.91 94.0344 324.918C95.2947 322.048 96.7599 319.287 98.4301 316.636C100.1 313.984 101.6 311.779 102.93 310.019L114.996 315.905L111.709 323.393L102.464 321.626C101.871 321.823 101.206 322.359 100.468 323.233C99.7052 324.048 98.9585 325.287 98.2279 326.951C96.6023 330.654 97.0333 334.225 99.5208 337.665C101.966 341.088 106.378 344.121 112.758 346.765C119.095 349.392 124.5 350.624 128.974 350.463C133.423 350.242 136.452 348.301 138.059 344.64C138.717 343.142 139.118 341.71 139.262 340.344C139.382 338.919 139.257 337.761 138.889 336.871L125.466 331.307L122.276 336.844L117.587 334.901L126.135 315.433L130.824 317.376L129.968 320.709L146.859 327.709C146.592 328.434 146.213 330.22 145.722 333.065C145.293 335.886 144.824 338.396 144.314 340.594C143.847 342.81 143.103 345.083 142.08 347.413Z" fill="#194464"/>
<path d="M121.253 285.044L117.773 288.678L113.66 286.112L125.883 267.616L129.996 270.182L127.667 275.339L141.709 284.1L152.047 268.458L138.063 259.735L134.41 263.503L130.298 260.937L142.37 242.67L146.483 245.235L144.455 249.936L178.769 271.342L182.148 267.485L186.026 269.904L173.953 288.171L170.075 285.752L172.259 281.067L157.041 271.574L146.704 287.215L161.98 296.745L165.661 292.431L169.539 294.85L157.24 313.46L153.362 311.041L155.567 306.45L121.253 285.044Z" fill="#194464"/>
<path d="M167.624 212.864L176.058 203.811L221.239 223.046L224.334 220.734L227.751 223.739L212.991 239.583L209.574 236.578L212.383 232.552L204.578 228.799L193.379 240.82L198.05 248.039L202.171 244.525L205.588 247.53L193.124 260.909L189.66 257.954L191.808 254.536L167.624 212.864ZM180.099 217.063L175.772 214.631L178.698 218.668L190.33 236.309L199.608 226.35L180.099 217.063Z" fill="#194464"/>
<path d="M265.146 194.327C263.881 195.253 262.43 195.635 260.791 195.476C259.189 195.289 257.898 194.564 256.918 193.299C255.798 191.854 255.426 190.286 255.804 188.594C256.155 186.865 257.129 185.416 258.728 184.246C260.178 183.185 261.699 182.779 263.292 183.029C264.884 183.279 266.157 184.018 267.109 185.246C268.285 186.764 268.689 188.337 268.32 189.966C267.951 191.594 266.893 193.048 265.146 194.327Z" fill="#194464"/>
<path d="M302.731 117.534L295.037 121.553L299.219 136.401L293.319 139.194L285.088 120.3L326.456 100.721L336.507 118.754L330.92 121.398L321.339 109.105L313.59 112.394L331.693 148.5L340.755 145.041L342.773 149.066L315.215 162.109L313.197 158.084L320.833 153.64L302.731 117.534Z" fill="#194464"/>
<path d="M388.185 133.661C381.279 135.692 375.605 135.589 371.163 133.352C366.721 131.114 363.421 126.532 361.263 119.606L354.04 96.4264L349.613 96.7361L348.197 92.1909L369.783 85.842L371.199 90.3872L365.889 93.0122L373.375 117.036C376.423 126.819 381.444 130.682 388.439 128.625C391.915 127.603 394.056 125.579 394.864 122.553C395.704 119.471 395.415 115.657 393.999 111.112L386.453 86.8932L380.422 87.6746L379.006 83.1295L396.382 78.0189L397.798 82.564L393.67 84.7704L401.035 108.405C403.139 115.158 402.974 120.64 400.542 124.852C398.14 129.008 394.021 131.945 388.185 133.661Z" fill="#194464"/>
<path d="M434.919 76.4506L426.317 77.9248L425.5 93.2987L418.996 94.1546L417.273 73.7065L462.872 67.7064L466.602 87.8905L460.443 88.7008L455.309 74.1099L446.89 74.8755L452.438 114.674L462.159 114.147L462.777 118.584L432.401 122.581L431.782 118.144L440.467 116.249L434.919 76.4506Z" fill="#194464"/>
<path d="M492.435 72.4126L486.706 71.4781L486.693 66.7293L510.224 66.6665L510.237 71.4153L504.375 72.3807L504.487 111.931L510.354 112.662L510.367 117.072L486.905 117.134L486.893 112.657L492.546 111.895L492.435 72.4126Z" fill="#194464"/>
<path d="M549.337 120.841C541.582 119.863 536.137 116.873 533.004 111.872C529.876 106.825 528.845 100.31 529.912 92.3269C530.602 87.1691 532.173 82.7839 534.628 79.1714C537.134 75.5198 540.305 72.8642 544.142 71.2047C547.978 69.5451 552.273 69.0153 557.028 69.6151C564.968 70.6167 570.52 73.5062 573.684 78.2836C576.9 83.0219 577.977 89.3603 576.916 97.2988C576.215 102.546 574.602 107.063 572.078 110.849C569.559 114.59 566.327 117.352 562.38 119.135C558.486 120.878 554.138 121.447 549.337 120.841ZM556.227 74.0291C552.903 73.6098 550.082 75.0552 547.762 78.3655C545.488 81.6815 543.88 86.8603 542.939 93.9018C541.98 101.078 542.167 106.529 543.5 110.254C544.839 113.935 547.17 115.985 550.494 116.404C553.771 116.817 556.562 115.254 558.866 111.714C561.222 108.134 562.873 102.801 563.82 95.7151C564.779 88.539 564.594 83.2482 563.266 79.8425C561.943 76.392 559.597 74.4542 556.227 74.0291Z" fill="#194464"/>
<path d="M607.313 84.7595L602.363 82.3822L603.78 77.8371L620.554 82.7708L630.381 115.856L631.695 124.748L641.062 94.6858L635.645 92.1709L637.061 87.6258L654.17 92.6578L652.753 97.2029L647.411 96.5531L634.059 139.407L624.235 136.518L613.899 101.085L612.159 91.2172L601.8 124.461L608.662 127.259L607.327 131.545L588.748 126.08L590.083 121.795L595.518 122.614L607.313 84.7595Z" fill="#194464"/>
<path d="M683.921 162.217C682.525 161.491 681.558 160.372 681.019 158.86C680.52 157.369 680.656 155.926 681.425 154.531C682.305 152.936 683.614 151.95 685.353 151.572C687.115 151.155 688.878 151.406 690.642 152.324C692.243 153.157 693.26 154.328 693.696 155.837C694.131 157.346 693.975 158.779 693.228 160.134C692.305 161.808 691.005 162.825 689.328 163.184C687.652 163.543 685.849 163.221 683.921 162.217Z" fill="#194464"/>
<path d="M746.988 203.248C740.718 198.337 737.414 192.844 737.074 186.768C736.764 180.657 739.166 174.521 744.279 168.36C747.727 164.205 751.591 161.278 755.873 159.577C760.184 157.841 764.533 157.356 768.921 158.121C773.338 158.851 777.468 160.72 781.309 163.73C782.831 164.922 784.225 166.16 785.492 167.443C786.789 168.691 788.317 170.236 790.076 172.079C791.43 173.546 792.382 174.525 792.933 175.014L782.507 186.28L776.69 181.724L781.548 172.196C781.452 170.726 780.136 168.998 777.599 167.011C774.809 164.825 771.473 164.449 767.593 165.882C763.778 167.309 759.708 170.628 755.383 175.838C751.176 180.908 748.58 185.585 747.596 189.869C746.649 194.181 747.679 197.515 750.687 199.872C752.173 201.035 753.413 201.775 754.408 202.089C755.439 202.432 756.445 202.552 757.427 202.45L764.562 198.715L769.495 203.364L761.373 211.205C760.263 210.453 758.758 209.709 756.856 208.974C755.085 208.226 753.459 207.447 751.98 206.636C750.536 205.854 748.872 204.724 746.988 203.248Z" fill="#194464"/>
<path d="M810.601 197.727L807.761 193.347L811.349 190.122L827.52 207.102L823.933 210.327L818.71 206.242L788.933 233.011L798.361 241.911L811.591 236.025L815.434 241.259L800.016 252.439L773.175 224.256L776.557 221.215L780.721 224.588L810.601 197.727Z" fill="#194464"/>
<path d="M862.349 248.89L869.428 258.981L839.579 297.137L841.165 300.602L837.357 303.124L824.969 285.466L828.777 282.944L832.147 286.542L837.733 280.051L828.334 266.654L820.016 269.371L822.564 274.087L818.756 276.609L808.295 261.698L812.064 259.12L814.979 261.951L862.349 248.89ZM855.22 259.687L858.669 256.171L853.943 257.987L833.563 264.833L841.35 275.932L855.22 259.687Z" fill="#194464"/>
<path d="M850.596 330.235C849.476 327.998 848.626 325.834 848.046 323.745C847.487 321.696 847.001 319.486 846.591 317.115C846.338 315.575 846.079 314.49 845.816 313.86L857.833 308.861L860.673 314.534L853.399 319.858C853.079 320.562 853.005 321.603 853.176 322.98C853.369 324.398 853.882 325.941 854.717 327.609C855.959 330.09 857.45 331.673 859.191 332.359C860.953 333.086 862.817 332.984 864.785 332.055C866.166 331.402 867.156 330.432 867.753 329.143C868.413 327.876 868.805 326.333 868.93 324.514C869.117 322.716 869.164 320.329 869.073 317.355C868.972 313.43 869.512 309.805 870.695 306.48C871.94 303.176 874.467 300.624 878.276 298.824C880.621 297.716 883.051 297.297 885.567 297.566C888.083 297.836 890.528 298.894 892.901 300.74C895.274 302.585 897.357 305.298 899.148 308.877C900.227 311.033 901.018 312.973 901.518 314.697C902.04 316.463 902.508 318.379 902.921 320.447C903.075 321.581 903.263 322.423 903.486 322.971L892.126 327.886L889.347 322.335L896.368 317.282C896.602 316.819 896.611 316.01 896.395 314.855C896.241 313.721 895.859 312.543 895.248 311.323C894.129 309.086 892.74 307.656 891.081 307.031C889.443 306.447 887.766 306.561 886.049 307.372C884.542 308.084 883.458 309.175 882.796 310.644C882.134 312.114 881.731 313.687 881.587 315.364C881.505 317.063 881.456 319.601 881.438 322.978C881.429 325.648 881.256 328.043 880.92 330.164C880.646 332.305 879.915 334.36 878.727 336.33C877.539 338.299 875.773 339.838 873.428 340.946C871.126 342.034 868.632 342.533 865.948 342.444C863.283 342.395 860.588 341.405 857.862 339.475C855.135 337.545 852.713 334.464 850.596 330.235Z" fill="#194464"/>
<path d="M870.742 378.392C869.948 376.027 869.411 373.771 869.131 371.624C868.865 369.52 868.696 367.266 868.624 364.863C868.59 363.304 868.487 362.195 868.314 361.536L880.923 358.182L882.937 364.181L874.981 368.486C874.564 369.141 874.344 370.162 874.32 371.549C874.311 372.98 874.602 374.576 875.194 376.339C876.074 378.962 877.329 380.729 878.957 381.64C880.599 382.594 882.46 382.742 884.54 382.083C886.001 381.62 887.118 380.79 887.891 379.594C888.723 378.426 889.329 376.95 889.709 375.164C890.147 373.408 890.531 371.05 890.86 368.092C891.313 364.19 892.359 360.671 893.999 357.535C895.698 354.428 898.561 352.236 902.588 350.96C905.067 350.174 907.533 350.082 909.987 350.684C912.442 351.286 914.714 352.659 916.805 354.803C918.896 356.947 920.577 359.911 921.847 363.695C922.612 365.974 923.121 368.001 923.374 369.776C923.642 371.594 923.835 373.554 923.954 375.658C923.946 376.802 924.014 377.66 924.157 378.233L912.211 381.591L910.241 375.722L917.908 371.651C918.205 371.224 918.328 370.424 918.277 369.25C918.285 368.106 918.072 366.889 917.639 365.599C916.845 363.235 915.671 361.632 914.116 360.793C912.575 359.997 910.898 359.886 909.083 360.461C907.49 360.966 906.262 361.902 905.399 363.27C904.536 364.638 903.915 366.143 903.537 367.785C903.216 369.456 902.81 371.964 902.316 375.308C901.931 377.951 901.422 380.301 900.79 382.356C900.217 384.441 899.203 386.379 897.748 388.172C896.294 389.965 894.328 391.255 891.849 392.04C889.415 392.811 886.875 392.974 884.228 392.529C881.596 392.126 879.065 390.787 876.637 388.512C874.208 386.237 872.243 382.864 870.742 378.392Z" fill="#194464"/>
<path d="M927.727 408.238L927.755 402.862L932.57 402.048L939.124 438.606L927.104 441.535L926.158 436.255L932.686 432.74L931.014 419.458L913.128 422.484L914.796 430.603L920.653 430.851L921.48 435.463L904.213 438.385L903.387 433.773L909.168 431.624L907.9 423.369L889.19 426.535L892.776 441.009L902.381 443.584L901.749 449.544L888.529 450.129L881.472 410.763L886.012 409.995L887.622 415.025L927.727 408.238Z" fill="#194464"/>
<path d="M890.014 484.597C889.938 482.111 890.077 479.799 890.431 477.662C890.786 475.571 891.278 473.362 891.906 471.036C892.326 469.531 892.548 468.439 892.574 467.759L905.645 467.994L905.837 474.301L896.955 476.253C896.365 476.768 895.857 477.687 895.432 479.012C895.008 480.381 894.824 481.993 894.881 483.846C894.965 486.604 895.655 488.643 896.953 489.963C898.252 491.328 899.995 491.979 902.182 491.916C903.717 491.872 905.03 491.382 906.119 490.446C907.256 489.553 908.266 488.303 909.148 486.694C910.078 485.129 911.13 482.972 912.304 480.223C913.87 476.604 915.895 473.514 918.379 470.954C920.91 468.438 924.293 467.119 928.527 466.997C931.133 466.922 933.526 467.509 935.706 468.759C937.886 470.008 939.669 471.948 941.053 474.578C942.437 477.207 943.189 480.511 943.31 484.49C943.383 486.886 943.284 488.97 943.012 490.742C942.741 492.56 942.358 494.494 941.861 496.544C941.522 497.64 941.338 498.482 941.31 499.071L928.874 499.022L928.686 492.851L937.223 491.044C937.632 490.716 937.983 489.982 938.274 488.842C938.613 487.747 938.762 486.521 938.721 485.165C938.645 482.678 937.983 480.82 936.734 479.589C935.488 478.403 933.91 477.837 932.002 477.892C930.327 477.94 928.877 478.502 927.653 479.578C926.428 480.654 925.396 481.928 924.556 483.4C923.764 484.916 922.646 487.21 921.203 490.283C920.066 492.714 918.896 494.829 917.694 496.628C916.539 498.471 915.004 500.054 913.088 501.376C911.173 502.698 908.912 503.396 906.306 503.471C903.747 503.545 901.262 503.006 898.852 501.853C896.443 500.746 894.404 498.769 892.734 495.921C891.063 493.073 890.157 489.298 890.014 484.597Z" fill="#194464"/>
</svg>
